<?xml version="1.0" encoding="UTF-8" standalone="no"?>
<!-- Created with Inkscape (http://www.inkscape.org/) -->

<svg
   width="210mm"
   height="297mm"
   viewBox="0 0 210 297"
   version="1.1"
   id="svg5"
   inkscape:version="1.1 (c4e8f9e, 2021-05-24)"
   sodipodi:docname="fpgawars-logo.svg"
   xmlns:inkscape="http://www.inkscape.org/namespaces/inkscape"
   xmlns:sodipodi="http://sodipodi.sourceforge.net/DTD/sodipodi-0.dtd"
   xmlns="http://www.w3.org/2000/svg"
   xmlns:svg="http://www.w3.org/2000/svg">
  <sodipodi:namedview
     id="namedview7"
     pagecolor="#ffffff"
     bordercolor="#666666"
     borderopacity="1.0"
     inkscape:pageshadow="2"
     inkscape:pageopacity="0.0"
     inkscape:pagecheckerboard="0"
     inkscape:document-units="mm"
     showgrid="false"
     inkscape:zoom="1.3416246"
     inkscape:cx="457.28143"
     inkscape:cy="369.32836"
     inkscape:window-width="1858"
     inkscape:window-height="1016"
     inkscape:window-x="62"
     inkscape:window-y="27"
     inkscape:window-maximized="1"
     inkscape:current-layer="layer1" />
  <defs
     id="defs2" />
  <g
     inkscape:label="Layer 1"
     inkscape:groupmode="layer"
     id="layer1">
    <path
       style="fill:#000000;stroke-width:0.264583"
       d="M 33.329098,96.241185 V 73.35326 l 22.820312,0.06762 22.820311,0.06762 0.06761,22.820315 0.06762,22.820315 H 56.217024 33.329098 Z m 59.082749,20.716655 c -0.232055,-0.29651 -5.899252,-17.621105 -5.997373,-18.333935 -0.02098,-0.15245 0.676018,-0.26458 1.644565,-0.26458 h 1.680985 l 2.045166,6.298195 c 1.124841,3.46401 2.154335,6.32151 2.287764,6.35 0.13343,0.0285 0.644682,-1.11516 1.136113,-2.54145 l 0.893514,-2.59326 1.090861,0.0797 1.090861,0.0797 0.888874,2.57968 c 0.48888,1.41883 0.982983,2.57969 1.098013,2.57969 0.11502,0 0.88068,-2.11336 1.70147,-4.69635 0.82079,-2.583 1.75544,-5.47026 2.077,-6.41615 l 0.58465,-1.719795 1.65364,-0.0788 c 1.21929,-0.0581 1.65374,0.0114 1.65401,0.26458 5.3e-4,0.42025 -5.51942,17.616265 -5.86817,18.281095 -0.20652,0.39369 -0.53033,0.46179 -1.88706,0.39688 l -1.637761,-0.0784 -0.557438,-1.57486 c -0.306591,-0.86618 -0.66998,-1.61238 -0.807529,-1.65823 -0.137549,-0.0459 -0.488315,0.66284 -0.779478,1.57486 l -0.529389,1.65823 -1.597716,0.0777 c -1.072737,0.0522 -1.685729,-0.0348 -1.865572,-0.26459 z m 14.367853,0.1011 c -0.0741,-0.11995 1.20385,-4.37644 2.83997,-9.45885 l 2.97476,-9.240765 1.6816,-0.0798 c 0.92489,-0.0439 1.79748,0.0361 1.93909,0.17769 0.41714,0.41713 6.06181,18.048945 5.9072,18.451845 -0.18071,0.47094 -2.68097,0.50685 -2.98646,0.0429 -0.11773,-0.1788 -0.40292,-0.8634 -0.63377,-1.52135 l -0.41971,-1.19627 h -3.39391 -3.3939 l -0.41972,1.19627 c -0.23084,0.65795 -0.51604,1.34255 -0.63376,1.52135 -0.24097,0.36597 -3.24396,0.45879 -3.46139,0.10699 z m 10.04229,-6.87256 c -1.02913,-3.2425 -1.95483,-5.72617 -2.15968,-5.79445 -0.20728,-0.0691 -2.2228,5.44757 -2.2228,6.08402 0,0.10258 1.02006,0.1865 2.26679,0.1865 2.06213,0 2.25315,-0.043 2.11569,-0.47607 z m 8.05294,-2.44771 v -9.564775 l 3.37344,0.0946 c 2.98273,0.0836 3.50325,0.1687 4.49428,0.7347 3.50787,2.003455 3.84544,7.114025 0.62641,9.483225 l -0.818,0.60204 1.85048,3.69391 c 1.01776,2.03165 1.85047,3.87977 1.85047,4.10693 0,0.33866 -0.29774,0.39885 -1.65364,0.33426 l -1.65365,-0.0788 -1.89267,-3.70417 c -1.40099,-2.74188 -2.0196,-3.70417 -2.38125,-3.70417 -0.44548,0 -0.50025,0.32674 -0.62087,3.70417 l -0.13229,3.70417 -1.52136,0.0793 -1.52135,0.0794 z m 6.7589,-2.22357 c 0.44838,-0.44837 0.64943,-0.94356 0.64943,-1.59952 0,-1.49295 -0.92984,-2.24896 -2.7661,-2.24896 h -1.46723 v 2.24896 2.24896 h 1.46723 c 1.20503,0 1.5833,-0.11606 2.11667,-0.64944 z m 9.57301,11.24528 c -0.84011,-0.2685 -1.94067,-0.80336 -2.44569,-1.18856 l -0.91822,-0.70036 0.69158,-1.3769 c 0.38037,-0.75729 0.73463,-1.42435 0.78725,-1.48235 0.0526,-0.058 0.54431,0.20324 1.09265,0.58053 1.399,0.96258 2.27816,1.24531 3.85847,1.24081 1.57478,-0.004 2.42937,-0.3687 3.15309,-1.34384 0.46567,-0.62745 0.47662,-0.76459 0.12775,-1.59957 -0.4561,-1.09158 -1.25943,-1.65574 -3.53082,-2.4796 -3.87474,-1.40543 -5.25109,-2.82758 -5.24525,-5.41983 0.004,-1.76016 0.6035,-2.88907 2.0764,-3.909795 0.94716,-0.65638 1.2585,-0.72159 3.44513,-0.72159 1.96326,0 2.65848,0.11509 3.79294,0.62789 0.76398,0.34534 1.38906,0.78865 1.38906,0.98511 0,0.196475 -0.26185,0.896195 -0.58189,1.554925 -0.55996,1.15256 -1.06012,1.48709 -1.40034,0.9366 -0.0888,-0.14361 -0.82777,-0.45484 -1.64225,-0.69162 -2.41618,-0.7024 -4.16624,0.12487 -3.65718,1.72878 0.16269,0.51259 1.3315,1.15266 3.60016,1.97155 3.18056,1.14805 5.00775,3.10155 5.21271,5.57305 0.14711,1.77394 -0.24903,2.99033 -1.33872,4.11073 -1.98332,2.03918 -5.19918,2.64843 -8.46683,1.60404 z M 87.200112,95.427265 c -0.242726,-0.63253 -0.184571,-17.919485 0.06159,-18.307362 0.162806,-0.256532 1.286782,-0.319909 4.692303,-0.264583 l 4.478218,0.07275 0.07854,1.644864 0.07854,1.644871 -2.988958,0.0749 -2.988961,0.0749 -0.08019,1.24585 -0.0802,1.24584 2.196864,0.0771 2.196862,0.0771 0.07849,1.64274 0.07849,1.64275 -2.195155,0.077 -2.195155,0.077 -0.07225,4.69635 -0.07225,4.69636 h -1.553093 c -1.172136,0 -1.59248,-0.10266 -1.713685,-0.41852 z m 12.175525,0.0122 c -0.21286,-0.5547 -0.21726,-17.671242 -0.005,-18.225196 0.13155,-0.342832 0.636693,-0.418517 2.793253,-0.418517 3.63973,0 4.82459,0.344909 6.31916,1.839484 1.97851,1.978499 2.28176,4.361829 0.86925,6.831549 -0.97145,1.69854 -2.38579,2.51243 -4.67593,2.6908 l -1.89446,0.14754 -0.13229,3.70417 -0.13229,3.70417 -1.48836,0.0784 c -1.179263,0.0621 -1.522683,-0.0111 -1.653643,-0.35237 z m 6.039623,-10.8161 c 1.65344,-0.69086 1.96346,-2.34578 0.67988,-3.62936 -0.6887,-0.6887 -0.94738,-0.77792 -2.05052,-0.70725 l -1.2624,0.0809 -0.0781,2.0937 c -0.0831,2.22796 0.0589,2.52473 1.21103,2.53246 0.33209,0.002 1.00712,-0.16446 1.50006,-0.37043 z m 13.97788,10.96584 c -2.80332,-0.66623 -5.3718,-2.79855 -6.6466,-5.51795 -0.59916,-1.27811 -0.7039,-1.85671 -0.7039,-3.88836 0,-2.16269 0.0815,-2.55237 0.86798,-4.14994 1.06242,-2.15807 2.93377,-3.920487 5.0318,-4.73888 2.09898,-0.818766 5.24365,-0.833929 7.01045,-0.0338 l 1.26856,0.57449 -0.4479,0.869557 c -1.05806,2.054123 -1.04478,2.045303 -2.4312,1.615493 -4.12495,-1.278781 -7.9924,1.67599 -7.9924,6.10628 0,3.20094 2.85041,5.9707 6.15156,5.97749 l 1.25677,0.003 v -2.38125 c 0,-2.3755 -0.002,-2.38125 -0.67408,-2.38125 -0.65889,0 -0.67231,-0.0373 -0.59531,-1.65364 l 0.0788,-1.65365 h 2.24896 2.24895 l 0.0713,5.75469 0.0713,5.75469 -2.98173,-0.0271 c -1.63994,-0.0149 -3.36493,-0.11815 -3.8333,-0.22946 z m 9.45017,-0.19438 c -4.8e-4,-0.63391 5.54313,-17.845626 5.88394,-18.268344 0.15752,-0.195384 0.88978,-0.330729 1.78935,-0.330729 0.8982,0 1.63311,0.135642 1.79191,0.330729 0.33719,0.414256 5.88165,17.624964 5.88127,18.256254 -2.2e-4,0.38353 -0.24451,0.46302 -1.42308,0.46302 -1.57742,0 -1.78728,-0.15794 -2.28521,-1.71979 -0.18558,-0.58209 -0.46898,-1.14581 -0.6298,-1.25272 -0.5203,-0.34591 -6.19106,-0.23776 -6.42833,0.12259 -0.11773,0.1788 -0.40249,0.86341 -0.63281,1.52136 l -0.41875,1.19627 -1.76406,0.0782 c -1.54971,0.0687 -1.76411,0.0205 -1.76443,-0.39687 z m 9.93703,-6.23906 c 0.17906,-0.46662 -1.80228,-6.07681 -2.13145,-6.03523 -0.14552,0.0184 -0.71022,1.36454 -1.25488,2.99144 -0.75344,2.25055 -0.91164,3.00796 -0.66146,3.16685 0.56602,0.35945 3.90154,0.25806 4.04779,-0.12306 z"
       id="path21" />
    <rect
       style="fill:#ebebec;fill-opacity:1;stroke:#000000;stroke-width:1.32292;stroke-linecap:round"
       id="rect280"
       width="51.498642"
       height="11.581581"
       x="43.664085"
       y="133.84891" />
    <rect
       style="fill:#305eac;fill-opacity:1;stroke:#000000;stroke-width:1.32292;stroke-linecap:round"
       id="rect5579"
       width="23.394474"
       height="18.174313"
       x="109.97256"
       y="129.54115" />
  </g>
</svg>
