<?xml version="1.0" encoding="UTF-8" standalone="no"?>
<!-- Created with Inkscape (http://www.inkscape.org/) -->

<svg
   width="357.76642mm"
   height="51.257278mm"
   viewBox="0 0 357.76642 51.257278"
   version="1.1"
   id="svg5"
   inkscape:version="1.1 (c4e8f9e, 2021-05-24)"
   sodipodi:docname="icestudio-banner.svg"
   xmlns:inkscape="http://www.inkscape.org/namespaces/inkscape"
   xmlns:sodipodi="http://sodipodi.sourceforge.net/DTD/sodipodi-0.dtd"
   xmlns="http://www.w3.org/2000/svg"
   xmlns:svg="http://www.w3.org/2000/svg">
  <sodipodi:namedview
     id="namedview7"
     pagecolor="#ffffff"
     bordercolor="#666666"
     borderopacity="1.0"
     inkscape:pageshadow="2"
     inkscape:pageopacity="0.0"
     inkscape:pagecheckerboard="0"
     inkscape:document-units="mm"
     showgrid="false"
     inkscape:zoom="0.33540614"
     inkscape:cx="681.26361"
     inkscape:cy="299.63673"
     inkscape:window-width="1858"
     inkscape:window-height="1016"
     inkscape:window-x="62"
     inkscape:window-y="27"
     inkscape:window-maximized="1"
     inkscape:current-layer="layer1"
     inkscape:snap-global="false"
     fit-margin-top="0"
     fit-margin-left="0"
     fit-margin-right="0"
     fit-margin-bottom="0" />
  <defs
     id="defs2" />
  <g
     inkscape:label="Layer 1"
     inkscape:groupmode="layer"
     id="layer1"
     transform="translate(21.871086,-78.233345)">
    <rect
       style="fill:#305eac;fill-opacity:1;stroke:none;stroke-width:8.68811;stroke-linecap:round"
       id="rect5579"
       width="357.76642"
       height="51.257278"
       x="-21.871086"
       y="78.233345" />
    <path
       style="fill:#ffffff;stroke-width:0.112534"
       d="m -9.8027709,119.4588 c -0.18155,-0.20061 -0.194654,-0.91259 -0.194654,-10.57502 0,-9.704565 0.01246,-10.374368 0.196934,-10.588292 0.318926,-0.369835 17.7733745,-10.374748 18.0996624,-10.374748 0.322843,0 17.7557245,10.006117 18.0799875,10.377543 0.184485,0.211321 0.196934,0.877759 0.196934,10.541187 0,11.35968 0.03381,10.81583 -0.672805,10.81583 -0.411918,0 -14.4576,-8.2413 -14.714871,-8.63395 -0.162389,-0.24784 -0.155461,-0.30969 0.09459,-0.84428 0.370578,-0.79227 0.379739,-2.17449 0.01893,-2.85734 -0.789709,-1.49458 -2.2315102,-2.18377 -3.753025,-1.79397 -2.095019,0.53672 -3.103941,2.61228 -2.2438828,4.61612 0.1318083,0.30712 0.2119182,0.66888 0.178024,0.80394 -0.046241,0.18423 -1.8537789,1.29468 -7.236522,4.44572 -3.9800771,2.32994 -7.3262321,4.21847 -7.5147701,4.24126 -0.230416,0.0279 -0.402579,-0.0282 -0.53454,-0.174 z m 7.478324,-5.34098 6.1900013,-3.62441 -0.092589,-0.45494 c -0.1146677,-0.56344 -0.1255177,-2.15629 -0.017311,-2.53978 0.077528,-0.27474 -0.1268148,-0.40597 -6.0892035,-3.91055 -3.393188,-1.99444 -6.201838,-3.626272 -6.241453,-3.626272 -0.0396,0 -0.07203,4.000582 -0.07203,8.890182 0,4.8896 0.02982,8.89017 0.06629,8.89017 0.03645,0 2.851787,-1.63098 6.2562844,-3.6244 z m 27.5501329,-5.27515 c 0,-5.1018 -0.04241,-8.883546 -0.09939,-8.862051 -0.05467,0.0206 -2.858112,1.656221 -6.229884,3.634651 l -6.130494,3.59713 0.1093,0.39585 c 0.107369,0.38885 0.05296,2.04157 -0.08541,2.59421 -0.06736,0.26902 0.199375,0.43998 6.098323,3.90864 3.392817,1.99502 6.206742,3.62817 6.253162,3.62922 0.04642,7.1e-4 0.0844,-4.00289 0.0844,-8.89765 z M 5.0518113,105.35935 c 0.7025264,-0.64206 1.0666811,-0.85425 1.9265477,-1.12258 l 0.6021027,-0.18789 -0.016716,-7.075432 c -0.00919,-3.891481 -0.032197,-7.09093 -0.051175,-7.109894 -0.029135,-0.02916 -15.2370556,8.695293 -15.3571496,8.810061 -0.02284,0.02189 0.179708,0.171853 0.450134,0.333362 1.62615,0.971189 11.752125,6.913253 11.7855683,6.915943 0.022287,0.001 0.3195722,-0.25182 0.6606743,-0.56357 z M 18.420635,102.2983 c 3.306851,-1.93492 6.012535,-3.543361 6.012628,-3.574302 1.62e-4,-0.05226 -15.0735004,-8.78858 -15.3068129,-8.87143 -0.06512,-0.0231 -0.1056464,2.70239 -0.1056464,7.105246 v 7.142766 l 0.422003,0.0783 c 0.6329813,0.11743 1.6206673,0.68496 2.1750183,1.24981 0.270932,0.27606 0.559596,0.47622 0.641476,0.4448 0.08188,-0.0314 2.854483,-1.64024 6.161334,-3.57517 z m 30.89249,17.12571 c -0.941674,-0.1924 -1.919479,-1.06958 -2.238401,-2.00804 -0.08878,-0.26126 -0.129992,-1.66301 -0.129992,-4.42169 v -4.03916 l 0.872138,0.0329 0.872137,0.0329 0.02956,3.95959 0.02956,3.9596 0.329411,0.32941 c 0.435716,0.43571 0.937863,0.53098 1.457963,0.27659 0.776469,-0.37978 0.797671,-0.50703 0.797871,-4.78817 l 2.21e-4,-3.80275 0.872138,0.0329 0.872141,0.0329 v 4.10749 c 0,4.01794 -0.0054,4.11758 -0.247824,4.57073 -0.393829,0.73616 -0.788118,1.13616 -1.417216,1.43774 -0.690741,0.33112 -1.405904,0.42894 -2.099665,0.2872 z m 21.357036,-1.2e-4 c -2.815605,-0.42283 -4.884765,-3.34394 -4.377862,-6.18039 0.456543,-2.55467 2.649685,-4.39442 5.233381,-4.39008 1.463558,0.003 2.614871,0.45111 3.674058,1.43173 1.700138,1.57403 2.13838,4.11589 1.079142,6.25912 -1.031996,2.08811 -3.260511,3.23226 -5.608719,2.87962 z m 1.967871,-1.97332 c 1.655893,-0.56421 2.674136,-2.62257 2.16453,-4.37555 -0.247739,-0.85218 -1.186903,-1.83686 -2.023212,-2.12126 -1.203333,-0.40922 -2.612541,-0.15557 -3.506233,0.6311 -1.812421,1.59535 -1.351343,4.58768 0.878602,5.702 0.798875,0.3992 1.633834,0.45418 2.486313,0.16371 z M 34.67853,119.314 c -1.045032,-0.2184 -2.363204,-0.92187 -2.363204,-1.26116 0,-0.23028 0.638975,-1.54849 0.750597,-1.54849 0.03968,0 0.228855,0.1191 0.420379,0.26466 1.247444,0.94807 2.939714,1.08344 3.776192,0.30205 0.277227,-0.25897 0.341924,-0.40998 0.341924,-0.79809 0,-0.41054 -0.06287,-0.53848 -0.441705,-0.89886 -0.242941,-0.2311 -0.660721,-0.50078 -0.928408,-0.59929 -0.267682,-0.0985 -0.777251,-0.28479 -1.132372,-0.41396 -1.709628,-0.62184 -2.590854,-1.77121 -2.403886,-3.13533 0.219446,-1.60104 1.770096,-2.52974 3.754646,-2.24869 0.863218,0.12225 2.164528,0.68763 2.164528,0.94043 0,0.17843 -0.638285,1.52306 -0.722989,1.52306 -0.0245,0 -0.365587,-0.15188 -0.757979,-0.33752 -1.111076,-0.52562 -2.27078,-0.44362 -2.555228,0.18068 -0.26232,0.57573 0.222997,1.06207 1.447916,1.45098 2.882065,0.91504 4.117587,2.87661 3.089623,4.9052 -0.522631,1.03136 -1.657272,1.675 -3.067633,1.74016 -0.476296,0.022 -1.093877,-0.008 -1.372401,-0.0658 z m 7.030025,-0.13697 c -0.02888,-0.0774 -0.06529,-1.98904 -0.08087,-4.24815 l -0.02833,-4.10749 -1.097206,-0.0322 -1.097207,-0.0322 v -0.89795 -0.89796 l 3.179083,0.0299 3.179084,0.0299 0.03288,0.87214 0.03288,0.87213 h -1.051297 c -0.667634,0 -1.100585,0.0493 -1.186343,0.13505 -0.100138,0.10014 -0.135041,1.20536 -0.135041,4.27628 v 4.14125 h -0.847536 c -0.57498,0 -0.864435,-0.0453 -0.900086,-0.14067 z m 12.915479,-5.00776 0.02926,-5.14842 1.456275,-0.0316 c 0.800947,-0.0174 1.715765,0.0222 2.032922,0.088 0.925333,0.1921 1.923736,0.72796 2.58111,1.38534 1.970344,1.97034 2.020919,5.14055 0.11582,7.25948 -1.10237,1.2261 -2.159724,1.59563 -4.565545,1.59563 h -1.679115 z m 3.889207,3.00375 c 0.782934,-0.39123 1.179366,-0.80813 1.563949,-1.64466 0.93762,-2.03947 -0.205517,-4.26153 -2.402533,-4.6701 -0.373635,-0.0695 -0.813825,-0.0926 -0.978205,-0.0513 l -0.298876,0.075 v 3.24259 c 0,1.78342 0.03377,3.27635 0.07502,3.31761 0.04126,0.0413 0.362339,0.075 0.713495,0.075 0.486955,0 0.801913,-0.0817 1.327147,-0.34414 z m 4.802254,2.00878 c -0.03066,-0.08 -0.04258,-2.39893 -0.02641,-5.1532 l 0.02934,-5.00775 h 0.900272 0.900268 v 5.12029 5.12029 l -0.873838,0.0329 c -0.635168,0.0239 -0.889078,-0.007 -0.92962,-0.11254 z m -20.96993,-12.07864 c -3.124536,-0.67797 -5.303818,-3.38106 -5.303818,-6.57862 0,-1.894564 0.589725,-3.295383 1.966981,-4.672304 1.71913,-1.71871 3.823596,-2.386945 6.038616,-1.917462 0.979936,0.207706 1.897388,0.606623 1.897388,0.825002 0,0.30704 -0.947046,1.82324 -1.13973,1.824695 -0.100756,7.13e-4 -0.362884,-0.0737 -0.5825,-0.165458 -1.424691,-0.59528 -3.375916,-0.147364 -4.57304,1.049762 -0.788689,0.788685 -1.163077,1.641812 -1.2232,2.787325 -0.10429,1.98699 0.936731,3.61826 2.763676,4.33066 0.88927,0.34675 2.203983,0.35031 3.066786,0.008 0.586404,-0.23246 0.626614,-0.23498 0.765095,-0.0479 0.29416,0.39735 0.922913,1.58903 0.922913,1.7492 0,0.21081 -0.935421,0.61408 -1.897388,0.81797 -0.922084,0.19544 -1.765745,0.19196 -2.701779,-0.0111 z m -9.303388,-0.19232 c -0.0296,-0.0774 -0.04066,-3.00184 -0.02463,-6.49884 l 0.02922,-6.358166 1.059663,-0.03258 c 0.771893,-0.02374 1.084681,0.0071 1.151755,0.11253 0.105191,0.165807 0.13148,12.468046 0.02722,12.739736 -0.0556,0.14489 -0.265586,0.178 -1.128873,0.178 -0.744727,0 -1.07659,-0.0419 -1.114381,-0.14067 z m 15.871482,-0.11082 c -0.03398,-0.14021 -0.04782,-3.06545 -0.03071,-6.50055 l 0.03113,-6.245636 h 3.263485 3.263485 v 1.069076 1.069068 l -2.081877,0.05625 -2.081881,0.05625 v 0.900267 0.900274 l 1.51921,0.05625 1.519206,0.05625 v 1.125341 1.12533 l -1.519206,0.0562 -1.51921,0.0563 v 2.08188 2.08188 l 2.081881,0.0563 2.081877,0.0562 v 1.06907 1.06907 l -3.232777,0.0299 -3.232772,0.0299 z"
       id="path149" />
  </g>
</svg>
