<?xml version="1.0" encoding="UTF-8" standalone="no"?>
<!-- Created with Inkscape (http://www.inkscape.org/) -->

<svg
   width="204.19473mm"
   height="74.622261mm"
   viewBox="0 0 204.19473 74.622261"
   version="1.1"
   id="svg5"
   inkscape:version="1.1 (c4e8f9e, 2021-05-24)"
   sodipodi:docname="icestudio-logo.svg"
   xmlns:inkscape="http://www.inkscape.org/namespaces/inkscape"
   xmlns:sodipodi="http://sodipodi.sourceforge.net/DTD/sodipodi-0.dtd"
   xmlns="http://www.w3.org/2000/svg"
   xmlns:svg="http://www.w3.org/2000/svg">
  <sodipodi:namedview
     id="namedview7"
     pagecolor="#ffffff"
     bordercolor="#666666"
     borderopacity="1.0"
     inkscape:pageshadow="2"
     inkscape:pageopacity="0.0"
     inkscape:pagecheckerboard="0"
     inkscape:document-units="mm"
     showgrid="false"
     inkscape:zoom="0.67081229"
     inkscape:cx="719.27722"
     inkscape:cy="337.65034"
     inkscape:window-width="1858"
     inkscape:window-height="1016"
     inkscape:window-x="62"
     inkscape:window-y="27"
     inkscape:window-maximized="1"
     inkscape:current-layer="layer1"
     fit-margin-top="0"
     fit-margin-left="0"
     fit-margin-right="0"
     fit-margin-bottom="0" />
  <defs
     id="defs2" />
  <g
     inkscape:label="Layer 1"
     inkscape:groupmode="layer"
     id="layer1"
     transform="translate(-3.891966,-59.146872)">
    <path
       style="fill:#000000;stroke-width:0.264583"
       d="m 4.349623,133.29737 c -0.4268441,-0.47166 -0.457657,-2.14564 -0.457657,-24.86338 0,-22.816838 0.02929,-24.391628 0.4630209,-24.894598 0.7498339,-0.86954 41.7877511,-24.39252 42.5548971,-24.39252 0.759055,0 41.746249,23.52581 42.508643,24.39909 0.433747,0.49684 0.463021,2.06373 0.463021,24.783848 0,26.70823 0.07954,25.42956 -1.581865,25.42956 -0.968475,0 -33.991885,-19.37648 -34.596768,-20.29965 -0.381804,-0.58271 -0.365514,-0.72812 0.222388,-1.98501 0.871283,-1.86275 0.892823,-5.11256 0.04452,-6.71803 -1.856716,-3.51397 -5.246595,-5.134368 -8.823902,-4.2179 -4.925689,1.2619 -7.297809,6.14185 -5.275685,10.85319 0.309903,0.72205 0.498252,1.57262 0.418554,1.89016 -0.108712,0.43315 -4.358499,3.04399 -17.014097,10.45254 -9.35773,5.478 -17.2250165,9.9182 -17.6683035,9.9718 -0.5417365,0.0655 -0.9465146,-0.0663 -1.2567705,-0.4091 z m 17.582616,-12.55741 14.553572,-8.5215 -0.217688,-1.06965 c -0.269603,-1.32472 -0.295106,-5.06972 -0.04067,-5.97137 0.182285,-0.64595 -0.298159,-0.9545 -14.316591,-9.194268 -7.977863,-4.68923 -14.5814115,-8.52588 -14.6745525,-8.52588 -0.09314,0 -0.169347,9.40593 -0.169347,20.902078 0,11.49615 0.07013,20.90208 0.15585,20.90208 0.08572,0 6.7049585,-3.83467 14.7094235,-8.52149 z m 64.774309,-12.40264 c 0,-11.995068 -0.09972,-20.886488 -0.233683,-20.835938 -0.128527,0.0485 -6.719834,3.89401 -14.647352,8.54556 l -14.413669,8.457368 0.256982,0.93072 c 0.252437,0.91425 0.124497,4.80001 -0.200824,6.09934 -0.158369,0.63253 0.468765,1.03448 14.33803,9.18979 7.977002,4.69058 14.592938,8.53034 14.702078,8.53281 0.109141,0.002 0.198438,-9.41137 0.198438,-20.91965 z m -47.431674,-8.18978 c 1.651736,-1.509588 2.507919,-2.008478 4.529593,-2.639358 l 1.415624,-0.44176 -0.03927,-16.63533 c -0.0216,-9.14943 -0.07574,-16.6718 -0.120317,-16.71638 -0.06853,-0.0685 -35.8245005,20.44387 -36.1068595,20.71371 -0.05373,0.0514 0.422516,0.40405 1.0583335,0.78378 3.823303,2.2834 27.630924,16.254048 27.709558,16.260358 0.05236,0.004 0.751362,-0.59206 1.55334,-1.32502 z m 31.432018,-7.196968 c 7.774879,-4.54927 14.136328,-8.33094 14.136552,-8.4037 3.76e-4,-0.12293 -35.439963,-20.66321 -35.988513,-20.85799 -0.153106,-0.0544 -0.248383,6.3537 -0.248383,16.70545 v 16.79365 l 0.992188,0.18405 c 1.488228,0.27608 3.810415,1.61045 5.113776,2.938478 0.637001,0.64906 1.315694,1.11967 1.508207,1.04579 0.192514,-0.0739 6.711291,-3.856448 14.486173,-8.405728 z m 72.632668,40.264998 c -2.21401,-0.45236 -4.51297,-2.51473 -5.2628,-4.7212 -0.20874,-0.61426 -0.30563,-3.90996 -0.30563,-10.39603 v -9.49664 l 2.05052,0.0773 2.05052,0.0773 0.0695,9.30957 0.0695,9.30958 0.77449,0.77448 c 1.02443,1.02444 2.20505,1.24842 3.42788,0.65032 1.82559,-0.89291 1.87544,-1.1921 1.87591,-11.25769 l 5.2e-4,-8.94081 2.05052,0.0773 2.05053,0.0773 v 9.65729 c 0,9.44676 -0.0127,9.68103 -0.58267,10.74644 -0.92595,1.73083 -1.85298,2.67129 -3.33208,3.38034 -1.62403,0.77852 -3.30548,1.00852 -4.93661,0.67525 z m 50.21345,-2.7e-4 c -6.61989,-0.99414 -11.48478,-7.8621 -10.29298,-14.531 1.0734,-6.0064 6.22979,-10.33189 12.30443,-10.32169 3.44103,0.006 6.14793,1.06061 8.63823,3.36619 3.99727,3.70076 5.02765,9.67705 2.53722,14.71609 -2.42637,4.90944 -7.66592,7.59952 -13.1869,6.77041 z m 4.62674,-4.63956 c 3.89325,-1.32656 6.28728,-6.16603 5.08913,-10.28754 -0.58247,-2.00361 -2.79058,-4.31873 -4.75687,-4.9874 -2.8292,-0.96212 -6.14245,-0.36576 -8.24365,1.4838 -4.26126,3.75091 -3.1772,10.78631 2.06572,13.40623 1.87827,0.93858 3.84138,1.06784 5.84567,0.38491 z m -89.24821,4.38119 c -2.45702,-0.5135 -5.55624,-2.16744 -5.55624,-2.96517 0,-0.54143 1.50233,-3.64072 1.76477,-3.64072 0.0933,0 0.53807,0.28001 0.98837,0.62224 2.93292,2.22906 6.91168,2.54732 8.87836,0.71016 0.6518,-0.60886 0.80391,-0.96391 0.80391,-1.8764 0,-0.96525 -0.14782,-1.26605 -1.03851,-2.11335 -0.57119,-0.54335 -1.55345,-1.17741 -2.18282,-1.40903 -0.62936,-0.23161 -1.82743,-0.66958 -2.66237,-0.97328 -4.01957,-1.46202 -6.09147,-4.16436 -5.65187,-7.3716 0.51595,-3.76427 4.16175,-5.94778 8.8277,-5.287 2.02955,0.28742 5.08912,1.61672 5.08912,2.21108 0,0.41952 -1.5007,3.58093 -1.69985,3.58093 -0.0576,0 -0.85955,-0.35709 -1.78212,-0.79354 -2.6123,-1.23582 -5.33892,-1.04302 -6.0077,0.42479 -0.61675,1.35362 0.5243,2.49709 3.40425,3.41146 6.77615,2.15141 9.68104,6.76333 7.26415,11.53284 -1.22878,2.42488 -3.89649,3.93817 -7.21245,4.09136 -1.11984,0.0517 -2.57185,-0.0179 -3.2267,-0.15477 z m 16.52859,-0.32204 c -0.0679,-0.1819 -0.15351,-4.67651 -0.19013,-9.98802 l -0.0666,-9.65729 -2.57969,-0.0757 -2.57969,-0.0757 v -2.11121 -2.11121 l 7.47448,0.0703 7.47448,0.0703 0.0773,2.05052 0.0773,2.05052 h -2.47175 c -1.5697,0 -2.58763,0.11587 -2.78926,0.3175 -0.23544,0.23544 -0.3175,2.83398 -0.3175,10.05416 v 9.73667 h -1.99268 c -1.35186,0 -2.03241,-0.10636 -2.11623,-0.33073 z m 30.36614,-11.77396 0.0688,-12.10468 3.42391,-0.0744 c 1.88314,-0.0409 4.03401,0.0522 4.77969,0.20703 2.17559,0.45165 4.52298,1.71155 6.06856,3.25713 4.63256,4.63255 4.75147,12.08615 0.27231,17.06806 -2.59183,2.88274 -5.07782,3.75158 -10.73425,3.75158 h -3.94785 z m 9.14408,7.06225 c 1.84079,-0.91985 2.77286,-1.90002 3.67707,-3.86683 2.20448,-4.79509 -0.4832,-10.01947 -5.6487,-10.98009 -0.87847,-0.16337 -1.91342,-0.21767 -2.2999,-0.12067 l -0.7027,0.17636 v 7.62378 c 0,4.19308 0.0794,7.70316 0.17639,7.80017 0.097,0.097 0.85191,0.17639 1.67753,0.17639 1.1449,0 1.88541,-0.19202 3.12031,-0.80911 z m 11.29079,4.72291 c -0.0721,-0.18806 -0.1001,-5.64021 -0.0621,-12.11589 l 0.069,-11.77395 h 2.11667 2.11666 v 12.03854 12.03854 l -2.05452,0.0773 c -1.49337,0.0562 -2.09035,-0.0161 -2.18567,-0.26459 z m -49.30331,-28.39861 c -7.34623,-1.59401 -12.47004,-7.949348 -12.47004,-15.467278 0,-4.45439 1.38653,-7.7479 4.62466,-10.98524 4.04192,-4.04094 8.98982,-5.61206 14.19765,-4.50823 2.30397,0.48834 4.46103,1.42626 4.46103,1.9397 0,0.72189 -2.22664,4.2867 -2.67967,4.29011 -0.23689,0.002 -0.85319,-0.17328 -1.36954,-0.38902 -3.34965,-1.39958 -7.93726,-0.34647 -10.75187,2.46814 -1.85432,1.85432 -2.73456,3.86014 -2.87592,6.55341 -0.2452,4.67169 2.20239,8.50704 6.4978,10.18198 2.0908,0.81528 5.18188,0.82364 7.21045,0.0195 1.37872,-0.54654 1.47326,-0.55246 1.79885,-0.11266 0.69161,0.93424 2.1699,3.736048 2.1699,4.112628 0,0.49565 -2.19931,1.44378 -4.46103,1.92317 -2.16795,0.45951 -4.15152,0.45133 -6.35227,-0.0262 z m -21.87359,-0.45217 c -0.0696,-0.1819 -0.0956,-7.057758 -0.0579,-15.279688 l 0.0687,-14.94896 2.49142,-0.0767 c 1.81483,-0.0558 2.55023,0.016 2.70793,0.26458 0.24732,0.38983 0.30913,29.314158 0.064,29.952938 -0.13072,0.34067 -0.62443,0.41852 -2.65413,0.41852 -1.75096,0 -2.53122,-0.0985 -2.62007,-0.33074 z m 37.31612,-0.26054 c -0.0799,-0.32965 -0.11244,-7.207328 -0.0722,-15.283728 l 0.0732,-14.68438 h 7.67292 7.67292 v 2.51354 2.51354 l -4.89479,0.1323 -4.8948,0.13229 v 2.11666 2.11667 l 3.57188,0.13229 3.57187,0.13229 v 2.64584 2.64583 l -3.57187,0.13229 -3.57188,0.13229 v 4.8948 4.89479 l 4.8948,0.13229 4.89479,0.13229 v 2.513538 2.51354 l -7.60072,0.0702 -7.60071,0.0702 z"
       id="path149" />
  </g>
</svg>
